<svg width="800" height="800" viewBox="0 0 800 800" fill="none" xmlns="http://www.w3.org/2000/svg">
  <rect width="800" height="800" fill="#0A0F2E"/>
  <!-- Road/route lines -->
  <path d="M400 800 C400 600 350 500 300 300 C250 100 200 50 100 0" stroke="#FF6B2B" stroke-width="3" stroke-dasharray="12 8" opacity="0.4"/>
  <path d="M400 800 C400 600 450 500 500 300 C550 100 600 50 700 0" stroke="#FF6B2B" stroke-width="3" stroke-dasharray="12 8" opacity="0.4"/>
  <path d="M0 400 C200 380 300 400 400 400 C500 400 600 380 800 360" stroke="white" stroke-width="2" opacity="0.1"/>
  <!-- Location pins -->
  <circle cx="200" cy="250" r="20" fill="#FF6B2B" opacity="0.6"/>
  <circle cx="200" cy="250" r="10" fill="white" opacity="0.8"/>
  <circle cx="600" cy="550" r="20" fill="#FF6B2B" opacity="0.6"/>
  <circle cx="600" cy="550" r="10" fill="white" opacity="0.8"/>
  <!-- Decorative circles -->
  <circle cx="400" cy="400" r="250" stroke="white" stroke-width="1" opacity="0.05" fill="none"/>
  <circle cx="400" cy="400" r="350" stroke="white" stroke-width="1" opacity="0.03" fill="none"/>
  <!-- Arabic text watermark -->
  <text x="400" y="420" text-anchor="middle" font-size="180" fill="white" opacity="0.04" font-weight="900">دربي</text>
</svg>
